<svg width="1134" height="354" viewBox="0 0 1134 354" fill="none" xmlns="http://www.w3.org/2000/svg">
<path d="M85.3072 282.031C71.6718 282.031 60.2371 278.791 51.0031 272.311C41.769 265.832 34.8219 257.02 30.1617 245.875C25.5015 234.644 23.1714 222.074 23.1714 208.165C23.1714 194.083 25.5015 181.469 30.1617 170.325C34.8219 159.18 41.6396 150.411 50.6147 144.018C59.6762 137.539 70.852 134.299 84.1421 134.299C97.346 134.299 108.781 137.539 118.446 144.018C128.198 150.411 135.749 159.18 141.1 170.325C146.45 181.383 149.126 193.996 149.126 208.165C149.126 222.16 146.494 234.73 141.229 245.875C135.965 257.02 128.543 265.832 118.964 272.311C109.385 278.791 98.1658 282.031 85.3072 282.031ZM17.864 278.143V91.5343H49.3202V179.914H45.4367V278.143H17.864ZM80.5175 254.039C88.6297 254.039 95.3179 252.009 100.582 247.949C105.846 243.888 109.73 238.402 112.233 231.491C114.822 224.493 116.116 216.718 116.116 208.165C116.116 199.698 114.822 192.009 112.233 185.098C109.644 178.1 105.631 172.571 100.194 168.51C94.757 164.363 87.853 162.29 79.4819 162.29C71.5424 162.29 65.0699 164.234 60.0645 168.122C55.0591 171.923 51.3483 177.279 48.9319 184.191C46.6018 191.016 45.4367 199.007 45.4367 208.165C45.4367 217.236 46.6018 225.227 48.9319 232.139C51.3483 239.05 55.1023 244.45 60.194 248.337C65.372 252.139 72.1465 254.039 80.5175 254.039Z" fill="black"/>
<path d="M241.219 282.031C227.066 282.031 214.639 278.964 203.937 272.83C193.236 266.696 184.865 258.186 178.824 247.301C172.87 236.415 169.892 223.888 169.892 209.72C169.892 194.428 172.826 181.167 178.695 169.936C184.563 158.618 192.719 149.849 203.161 143.629C213.603 137.409 225.685 134.299 239.407 134.299C253.905 134.299 266.203 137.711 276.3 144.536C286.483 151.275 294.034 160.821 298.953 173.176C303.872 185.53 305.728 200.087 304.52 216.847H273.581V205.443C273.495 190.238 270.82 179.137 265.555 172.139C260.291 165.141 252.006 161.642 240.701 161.642C227.929 161.642 218.436 165.616 212.222 173.564C206.009 181.426 202.902 192.96 202.902 208.165C202.902 222.333 206.009 233.305 212.222 241.08C218.436 248.856 227.497 252.743 239.407 252.743C247.087 252.743 253.689 251.059 259.212 247.689C264.822 244.234 269.137 239.266 272.157 232.787L302.966 242.117C297.616 254.73 289.331 264.536 278.112 271.534C266.979 278.532 254.682 282.031 241.219 282.031ZM193.064 216.847V193.262H289.245V216.847H193.064Z" fill="black"/>
<path d="M396.963 282.031C382.81 282.031 370.382 278.964 359.681 272.83C348.98 266.696 340.609 258.186 334.568 247.301C328.613 236.415 325.636 223.888 325.636 209.72C325.636 194.428 328.57 181.167 334.439 169.936C340.307 158.618 348.462 149.849 358.905 143.629C369.347 137.409 381.429 134.299 395.15 134.299C409.649 134.299 421.947 137.711 432.044 144.536C442.227 151.275 449.778 160.821 454.697 173.176C459.616 185.53 461.472 200.087 460.264 216.847H429.325V205.443C429.239 190.238 426.564 179.137 421.299 172.139C416.035 165.141 407.75 161.642 396.445 161.642C383.673 161.642 374.18 165.616 367.966 173.564C361.753 181.426 358.646 192.96 358.646 208.165C358.646 222.333 361.753 233.305 367.966 241.08C374.18 248.856 383.241 252.743 395.15 252.743C402.831 252.743 409.433 251.059 414.956 247.689C420.566 244.234 424.881 239.266 427.901 232.787L458.71 242.117C453.36 254.73 445.075 264.536 433.856 271.534C422.723 278.532 410.426 282.031 396.963 282.031ZM348.808 216.847V193.262H444.988V216.847H348.808Z" fill="black"/>
<path d="M518.92 278.143L476.202 137.927L506.752 138.186L534.066 227.992L561.768 138.186H588.046L615.619 227.992L643.062 138.186H673.612L630.894 278.143H606.558L574.842 181.858L543.257 278.143H518.92Z" fill="black"/>
<path d="M778.915 278.143C769.681 279.871 760.62 280.605 751.731 280.346C742.929 280.173 735.032 278.575 728.042 275.551C721.052 272.441 715.744 267.56 712.12 260.908C708.926 254.86 707.244 248.683 707.071 242.376C706.898 236.07 706.812 228.942 706.812 220.994V99.3097H737.88V219.18C737.88 224.795 737.923 229.72 738.009 233.953C738.182 238.186 739.088 241.642 740.728 244.32C743.835 249.504 748.797 252.398 755.615 253.003C762.432 253.607 770.199 253.262 778.915 251.966V278.143ZM681.44 162.679V138.186H778.915V162.679H681.44Z" fill="black"/>
<path d="M863.646 282.031C849.666 282.031 837.454 278.877 827.012 272.571C816.57 266.264 808.458 257.581 802.676 246.523C796.98 235.378 794.132 222.592 794.132 208.165C794.132 193.478 797.066 180.605 802.934 169.547C808.803 158.489 816.958 149.849 827.4 143.629C837.843 137.409 849.925 134.299 863.646 134.299C877.713 134.299 889.968 137.452 900.41 143.759C910.852 150.065 918.964 158.791 924.746 169.936C930.528 180.994 933.419 193.737 933.419 208.165C933.419 222.679 930.485 235.508 924.617 246.653C918.835 257.711 910.723 266.393 900.28 272.7C889.838 278.92 877.627 282.031 863.646 282.031ZM863.646 252.743C876.073 252.743 885.307 248.597 891.348 240.303C897.389 232.009 900.41 221.296 900.41 208.165C900.41 194.601 897.346 183.802 891.219 175.767C885.092 167.646 875.901 163.586 863.646 163.586C855.275 163.586 848.371 165.487 842.934 169.288C837.584 173.003 833.614 178.23 831.025 184.968C828.436 191.62 827.141 199.353 827.141 208.165C827.141 221.728 830.205 232.571 836.332 240.692C842.546 248.726 851.651 252.743 863.646 252.743Z" fill="black"/>
<path d="M1058.64 278.143V210.756C1058.64 206.35 1058.34 201.469 1057.73 196.113C1057.13 190.757 1055.71 185.616 1053.46 180.692C1051.3 175.681 1048.02 171.577 1043.62 168.381C1039.31 165.184 1033.44 163.586 1026.02 163.586C1022.05 163.586 1018.12 164.234 1014.24 165.53C1010.35 166.826 1006.82 169.072 1003.62 172.268C1000.52 175.379 998.014 179.698 996.115 185.227C994.217 190.67 993.268 197.668 993.268 206.221L974.756 198.316C974.756 186.394 977.043 175.595 981.617 165.919C986.277 156.243 993.095 148.554 1002.07 142.852C1011.05 137.063 1022.09 134.169 1035.21 134.169C1045.57 134.169 1054.11 135.897 1060.84 139.353C1067.57 142.808 1072.92 147.215 1076.89 152.571C1080.86 157.927 1083.8 163.629 1085.69 169.677C1087.59 175.724 1088.8 181.469 1089.32 186.912C1089.92 192.268 1090.23 196.631 1090.23 200.001V278.143H1058.64ZM961.682 278.143V138.186H989.514V181.599H993.268V278.143H961.682Z" fill="black"/>
<path d="M241.219 282.031C227.066 282.031 214.638 278.964 203.937 272.83C193.236 266.696 184.865 258.186 178.824 247.301C172.869 236.415 169.892 223.888 169.892 209.72C169.892 194.428 172.826 181.167 178.695 169.936C184.563 158.618 192.718 149.849 203.161 143.629C213.603 137.409 225.685 134.299 239.406 134.299C253.905 134.299 266.202 137.711 276.3 144.536C286.483 151.275 294.034 160.821 298.953 173.175C303.872 185.53 305.728 200.087 304.52 216.847H273.581V205.443C273.495 190.238 270.82 179.137 265.555 172.139C260.291 165.141 252.006 161.642 240.701 161.642C227.929 161.642 218.436 165.616 212.222 173.564C206.008 181.426 202.902 192.959 202.902 208.165C202.902 222.333 206.008 233.305 212.222 241.08C218.436 248.856 227.497 252.743 239.406 252.743C247.087 252.743 253.689 251.059 259.212 247.689C264.822 244.234 269.137 239.266 272.157 232.787L302.966 242.117C297.616 254.73 289.331 264.536 278.112 271.534C266.979 278.532 254.682 282.031 241.219 282.031ZM193.064 216.847V193.262H289.244V216.847H193.064Z" fill="#8729FF"/>
<path d="M396.963 282.031C382.809 282.031 370.382 278.964 359.681 272.83C348.98 266.696 340.609 258.186 334.568 247.301C328.613 236.415 325.636 223.888 325.636 209.72C325.636 194.428 328.57 181.167 334.439 169.936C340.307 158.618 348.462 149.849 358.904 143.629C369.347 137.409 381.429 134.299 395.15 134.299C409.649 134.299 421.946 137.711 432.043 144.536C442.227 151.275 449.778 160.821 454.697 173.175C459.616 185.53 461.472 200.087 460.263 216.847H429.325V205.443C429.239 190.238 426.563 179.137 421.299 172.139C416.035 165.141 407.75 161.642 396.445 161.642C383.672 161.642 374.18 165.616 367.966 173.564C361.752 181.426 358.646 192.959 358.646 208.165C358.646 222.333 361.752 233.305 367.966 241.08C374.18 248.856 383.241 252.743 395.15 252.743C402.831 252.743 409.433 251.059 414.956 247.689C420.566 244.234 424.881 239.266 427.901 232.787L458.71 242.117C453.359 254.73 445.075 264.536 433.856 271.534C422.723 278.532 410.425 282.031 396.963 282.031ZM348.807 216.847V193.262H444.988V216.847H348.807Z" fill="#8729FF"/>
<path fill-rule="evenodd" clip-rule="evenodd" d="M1067.17 41.0893H1133.47V107.464H1114.53V74.2303L1074.25 114.553L1060.85 101.143L1101.9 60.0536H1067.17V41.0893Z" fill="#8729FF"/>
</svg>
